<?xml version="1.0" standalone="no"?>
<!DOCTYPE svg PUBLIC "-//W3C//DTD SVG 20010904//EN"
 "http://www.w3.org/TR/2001/REC-SVG-20010904/DTD/svg10.dtd">
<svg version="1.0" xmlns="http://www.w3.org/2000/svg"
 width="700.000000pt" height="700.000000pt" viewBox="0 0 700.000000 700.000000"
 preserveAspectRatio="xMidYMid meet">
<metadata>
Created by potrace 1.14, written by Peter Selinger 2001-2017
</metadata>
<g transform="translate(0.000000,700.000000) scale(0.100000,-0.100000)"
fill="#000000" stroke="none">
<path d="M763 6227 c-7 -11 -5 -785 2 -872 56 -694 350 -1276 865 -1716 186
-159 433 -309 642 -389 29 -11 62 -24 73 -29 61 -27 324 -92 420 -105 133 -18
205 -23 341 -25 l80 -1 0 -1117 0 -1118 317 -1 317 0 0 683 c0 539 3 683 13
684 6 0 53 2 102 4 603 18 1159 262 1585 695 219 222 348 404 480 675 123 254
194 496 236 805 3 25 8 251 11 504 l5 458 -458 -5 c-253 -3 -477 -8 -499 -11
-38 -6 -153 -25 -185 -31 -306 -56 -700 -231 -949 -422 -179 -136 -286 -239
-371 -355 -63 -87 -80 -102 -80 -74 0 22 -67 219 -106 314 -184 445 -456 783
-839 1041 -152 102 -333 199 -470 250 -33 13 -69 27 -80 31 -11 5 -51 18 -90
30 -38 11 -83 25 -100 30 -40 11 -228 48 -285 54 -25 3 -72 8 -105 12 -88 10
-866 11 -872 1z m937 -667 c377 -67 701 -231 951 -480 109 -109 208 -233 264
-331 170 -298 264 -616 276 -939 l2 -65 -44 1 c-55 0 -214 13 -254 19 -342 55
-523 118 -720 248 -201 133 -409 361 -528 578 -38 69 -96 205 -123 289 -31 92
-82 299 -90 360 -3 25 -8 59 -10 75 -7 41 -11 85 -19 189 l-6 88 93 -6 c51 -3
145 -15 208 -26z m3905 -883 c-5 -95 -32 -287 -55 -392 -11 -49 -23 -103 -26
-119 -3 -16 -26 -88 -51 -160 -164 -473 -464 -797 -923 -999 -106 -46 -315
-107 -415 -122 -23 -3 -52 -8 -65 -10 -14 -3 -76 -8 -137 -11 l-113 -7 5 54
c2 30 7 83 10 119 3 36 7 74 9 85 2 11 7 43 10 70 49 376 182 680 410 940 61
70 68 77 145 148 67 62 210 160 311 215 148 79 369 161 480 178 19 3 51 9 70
14 46 12 205 31 306 37 30 2 31 1 29 -40z"/>
</g>
</svg>
